<?xml version="1.0" encoding="iso-8859-1"?>
<!-- Generator: Adobe Illustrator 16.0.0, SVG Export Plug-In . SVG Version: 6.00 Build 0)  -->
<!DOCTYPE svg PUBLIC "-//W3C//DTD SVG 1.1//EN" "http://www.w3.org/Graphics/SVG/1.1/DTD/svg11.dtd">
<svg version="1.1" id="Capa_1" xmlns="http://www.w3.org/2000/svg" xmlns:xlink="http://www.w3.org/1999/xlink" x="0px" y="0px"
	 width="468.96px" height="468.96px" viewBox="0 0 468.96 468.96" style="enable-background:new 0 0 468.96 468.96;"
	 xml:space="preserve">
<g>
	<path d="M388.868,188.804c-1.726,25.25-8.907,49.225-21.516,71.194c-12.265,21.374-27.763,40.537-41.476,60.958
		c-7.778,11.585-15.19,23.483-21.255,36.062c-6.396,13.27-7.359,22.337-3.251,36.476c7.666,26.333,5.745,49.03-19.647,64.918
		c-45.232,28.301-108.9-5.013-135.554-44.763c-7.179-10.704,10.083-20.658,17.194-10.054c12.548,18.702,33.762,33.544,55.103,40.43
		c20.779,6.696,52.181,8.706,64.936-14.05c9.906-17.691-7.234-40.395-4.64-59.77c2.66-19.825,17.247-40.436,28.188-56.738
		c22.845-34.027,52.375-66.229,59.952-107.862c7.276-39.972-2.127-85.476-23.099-120.278
		c-35.819-59.43-108.894-80.475-172.482-54.601c-26.994,10.991-51.5,30.801-63.859,57.645c-14.05,30.517-8.627,64.487,6.117,93.647
		c5.775,11.435-11.401,21.516-17.2,10.055c-4.867-9.638-9.229-19.689-12.111-30.112C65.984,95.925,104.38,35.756,166.026,11.528
		c62.692-24.648,139.399-9.783,181.762,44.715C376.213,92.839,392.03,142.422,388.868,188.804z M211.652,98.558
		c3.269-2.305,6.924-4.025,10.651-5.423c12.584-4.726,26.238-6.804,39.52-8.352c12.602-1.466,12.743-21.403,0-19.919
		c-22.922,2.669-60.695,5.84-72.711,29.864c-9.46,18.915,4.365,38.65,15.761,53.061c15.327,19.375,33.677,36.153,49.739,54.899
		c7.116,8.305,13.725,17.097,18.701,26.874c3.7,7.285,5.29,14.91,3.541,21.371c-4.841,17.969-35.217,26.48-52.541,31.078
		c-12.401,3.293-7.134,22.503,5.296,19.205c24.955-6.621,57.932-17.36,66.455-44.993c6.531-21.179-7.66-42.768-20.031-58.638
		c-15.345-19.671-33.621-36.774-50.047-55.502c-6.561-7.48-12.82-15.306-17.354-24.217c-3.074-6.035-3.408-11.222-1.531-14.6
		C207.845,101.936,209.97,99.737,211.652,98.558z"/>
</g>
<g>
</g>
<g>
</g>
<g>
</g>
<g>
</g>
<g>
</g>
<g>
</g>
<g>
</g>
<g>
</g>
<g>
</g>
<g>
</g>
<g>
</g>
<g>
</g>
<g>
</g>
<g>
</g>
<g>
</g>
</svg>
