<?xml version="1.0" encoding="iso-8859-1"?>
<!-- Generator: Adobe Illustrator 19.0.0, SVG Export Plug-In . SVG Version: 6.00 Build 0)  -->
<svg version="1.1" id="Layer_1" xmlns="http://www.w3.org/2000/svg" xmlns:xlink="http://www.w3.org/1999/xlink" x="0px" y="0px"
	 viewBox="0 0 512 512" style="enable-background:new 0 0 512 512;" xml:space="preserve">
<g>
	<g>
		<path d="M316.626,365.394c-16.102-32.206-16.035-63.89,33.986-122.247c13.166-15.36,32.808-46.444,16.434-82.045
			c-13.47-29.286-44.684-46.786-67.078-46.786c-29.051,0-47.423,11.162-80.773,31.428c-10.774,6.546-22.984,13.965-37.905,22.492
			c-21.545,12.311-34.727,28.122-39.182,46.992c-6.667,28.244,9.17,52.439,9.848,53.455c0.129,0.194,0.286,0.408,0.43,0.591
			c0.336,0.426,33.676,43.77,42.09,144.751c3.468,41.621,17.822,70.509,42.661,85.861C251.73,508.904,267.9,512,283.226,512
			c23.058,0,44.204-7.008,55.18-11.4c10.37-4.148,17.281-11.027,20.543-20.448c8.794-25.398-12.815-62.82-30.176-92.888
			C324.123,379.21,319.73,371.603,316.626,365.394z M342.331,474.398c-1.561,4.507-4.883,7.644-10.455,9.873
			c-48.758,19.502-77.763,5.432-85.493,0.653c-19.834-12.257-31.401-36.603-34.381-72.359
			c-8.565-102.772-41.622-148.719-45.535-153.83c-1.346-2.177-11.893-20.102-7.206-39.623c3.33-13.869,13.677-25.848,30.753-35.606
			c15.127-8.644,27.444-16.128,38.313-22.732c32.624-19.823,47.513-28.871,71.641-28.871c16.56,0,41.045,14.686,51.1,36.548
			c9.23,20.071,4.456,41.942-13.81,63.252c-48.696,56.811-58.891,96.501-36.362,141.558c3.34,6.68,7.861,14.509,12.647,22.798
			C328.294,421.605,348.496,456.592,342.331,474.398z"/>
	</g>
</g>
<g>
	<g>
		<path d="M141.685,131.902c-14.546,0-26.38,11.834-26.38,26.38c0,14.546,11.834,26.38,26.38,26.38
			c14.546,0,26.38-11.834,26.38-26.38C168.065,143.737,156.231,131.902,141.685,131.902z M141.685,167.076
			c-4.849,0-8.794-3.945-8.794-8.793c0-4.849,3.945-8.794,8.794-8.794c4.849,0,8.793,3.945,8.793,8.794
			C150.478,163.132,146.533,167.076,141.685,167.076z"/>
	</g>
</g>
<g>
	<g>
		<path d="M185.652,96.728c-14.546,0-26.38,11.835-26.38,26.38s11.835,26.38,26.38,26.38s26.38-11.835,26.38-26.38
			S200.198,96.728,185.652,96.728z M185.652,131.902c-4.849,0-8.794-3.945-8.794-8.794s3.945-8.794,8.794-8.794
			s8.794,3.945,8.794,8.794S190.501,131.902,185.652,131.902z"/>
	</g>
</g>
<g>
	<g>
		<path d="M238.413,61.554c-14.546,0-26.38,11.835-26.38,26.38c0,14.546,11.834,26.38,26.38,26.38
			c14.546,0,26.38-11.834,26.38-26.38C264.794,73.389,252.959,61.554,238.413,61.554z M238.413,96.728
			c-4.849,0-8.794-3.945-8.794-8.794c0-4.849,3.945-8.793,8.794-8.793c4.849,0,8.793,3.945,8.793,8.793
			C247.206,92.784,243.262,96.728,238.413,96.728z"/>
	</g>
</g>
<g>
	<g>
		<path d="M291.174,43.967c-14.546,0-26.38,11.835-26.38,26.38s11.834,26.38,26.38,26.38c14.546,0,26.38-11.835,26.38-26.38
			S305.72,43.967,291.174,43.967z M291.174,79.141c-4.849,0-8.794-3.945-8.794-8.794s3.945-8.794,8.794-8.794
			c4.849,0,8.793,3.945,8.793,8.794S296.023,79.141,291.174,79.141z"/>
	</g>
</g>
<g>
	<g>
		<path d="M361.522,0c-20.053,0-35.174,24.573-35.174,57.158s15.121,57.158,35.174,57.158s35.174-24.573,35.174-57.158
			S381.575,0,361.522,0z M361.522,96.728c-10.735,0-17.587-23.436-17.587-39.571s6.852-39.571,17.587-39.571
			c10.735,0,17.587,23.436,17.587,39.571S372.257,96.728,361.522,96.728z"/>
	</g>
</g>
<g>
</g>
<g>
</g>
<g>
</g>
<g>
</g>
<g>
</g>
<g>
</g>
<g>
</g>
<g>
</g>
<g>
</g>
<g>
</g>
<g>
</g>
<g>
</g>
<g>
</g>
<g>
</g>
<g>
</g>
</svg>
