<?xml version="1.0" encoding="iso-8859-1"?>
<!-- Generator: Adobe Illustrator 16.0.0, SVG Export Plug-In . SVG Version: 6.00 Build 0)  -->
<!DOCTYPE svg PUBLIC "-//W3C//DTD SVG 1.1//EN" "http://www.w3.org/Graphics/SVG/1.1/DTD/svg11.dtd">
<svg version="1.1" id="Capa_1" xmlns="http://www.w3.org/2000/svg" xmlns:xlink="http://www.w3.org/1999/xlink" x="0px" y="0px"
	 width="196.863px" height="196.863px" viewBox="0 0 196.863 196.863" style="enable-background:new 0 0 196.863 196.863;"
	 xml:space="preserve">
<g>
	<g>
		<ellipse cx="99.96" cy="16.456" rx="16.675" ry="16.456"/>
		<path d="M103.533,81.176c-3.284,0-5.947,2.663-5.947,5.946c0,3.283,2.663,5.946,5.947,5.946c15.853,0,32.247-11.646,32.247-31.172
			c0-20.922-13.23-26.518-20.228-26.518c-0.009,0-33.569-0.012-33.57-0.012c-0.948,0-2.142,0.288-2.974,0.763
			c-27.58,15.726-15.261,64.79-14.725,66.87c0.693,2.682,3.107,4.458,5.753,4.458c0.493,0,0.994-0.062,1.491-0.191
			c3.181-0.822,5.092-4.066,4.271-7.244c-0.098-0.382-8.429-34.58,4.168-49.452v137.375c0,4.927,3.999,8.918,8.924,8.918
			c4.927,0,8.925-3.991,8.925-8.918v-67.404h4.236v67.404c0,4.927,3.997,8.918,8.923,8.918c4.927,0,8.925-3.991,8.925-8.918V92.211
			c-4.99,2.512-10.707,3.883-16.372,3.883c-4.946,0-8.967-4.024-8.967-8.972c0-4.946,4.021-8.97,8.967-8.97
			c6.761,0,13.802-3.693,16.372-10.644V49.207c2.028,1.879,3.989,5.535,3.989,12.667C123.888,74.411,113.4,81.176,103.533,81.176z"
			/>
	</g>
</g>
<g>
</g>
<g>
</g>
<g>
</g>
<g>
</g>
<g>
</g>
<g>
</g>
<g>
</g>
<g>
</g>
<g>
</g>
<g>
</g>
<g>
</g>
<g>
</g>
<g>
</g>
<g>
</g>
<g>
</g>
</svg>
